<!-- Generator: Adobe Illustrator 20.1.0, SVG Export Plug-In  -->
<svg version="1.1"
	 xmlns="http://www.w3.org/2000/svg" xmlns:xlink="http://www.w3.org/1999/xlink" xmlns:a="http://ns.adobe.com/AdobeSVGViewerExtensions/3.0/"
	 x="0px" y="0px" width="221.537px" height="181.73px" viewBox="0 0 221.537 181.73"
	 style="enable-background:new 0 0 221.537 181.73;" xml:space="preserve">
<style type="text/css">
	.st0{fill:#D14C4B;}
	.st1{font-family:'Avenir-Black';}
	.st2{font-size:14px;}
	.st3{font-family:'Avenir-Book';}
	.st4{font-size:12px;}
</style>
<defs>
</defs>
<g>
	<path d="M36.706,2.049h3.304l2.282,6.468h0.028l2.296-6.468h3.29v9.912h-2.184V4.359h-0.028l-2.604,7.602h-1.666l-2.506-7.602
		H38.89v7.602h-2.184V2.049z"/>
</g>
<g>
	<path d="M76.637,3.977h-2.828V2.045h7.84v1.932h-2.828v7.98h-2.184V3.977z"/>
</g>
<g>
	<path d="M104.347,2.044h2.38l1.582,6.356h0.028l2.072-6.356h2.03l2.058,6.524h0.028l1.666-6.524h2.212l-2.898,9.912h-1.946
		l-2.184-6.86h-0.028l-2.184,6.86h-1.876L104.347,2.044z"/>
</g>
<g>
	<path d="M144.344,3.976h-2.828V2.044h7.84v1.932h-2.828v7.98h-2.184V3.976z"/>
</g>
<g>
	<path d="M177.097,2.044h6.65V4.06h-4.466v2.017h4.13v2.016h-4.13v3.864h-2.184V2.044z"/>
</g>
<g>
	<path d="M217.99,4.466c-0.178-0.224-0.418-0.39-0.721-0.497c-0.303-0.106-0.59-0.161-0.861-0.161c-0.159,0-0.322,0.02-0.49,0.057
		s-0.327,0.096-0.476,0.175s-0.271,0.185-0.364,0.315s-0.14,0.289-0.14,0.476c0,0.299,0.112,0.527,0.336,0.686
		c0.224,0.159,0.506,0.294,0.847,0.406c0.34,0.112,0.707,0.225,1.099,0.336c0.392,0.112,0.758,0.271,1.099,0.477
		s0.623,0.48,0.847,0.825c0.224,0.346,0.336,0.808,0.336,1.387c0,0.551-0.103,1.031-0.308,1.441
		c-0.205,0.411-0.483,0.752-0.833,1.022c-0.35,0.271-0.756,0.472-1.218,0.602c-0.462,0.131-0.95,0.196-1.463,0.196
		c-0.644,0-1.242-0.098-1.792-0.294c-0.551-0.196-1.064-0.514-1.54-0.952l1.554-1.708c0.224,0.299,0.506,0.53,0.847,0.693
		s0.693,0.245,1.057,0.245c0.177,0,0.357-0.021,0.539-0.063c0.182-0.042,0.345-0.104,0.49-0.188s0.261-0.191,0.35-0.322
		c0.088-0.131,0.133-0.285,0.133-0.462c0-0.299-0.114-0.534-0.343-0.707c-0.229-0.173-0.516-0.319-0.861-0.441
		c-0.346-0.121-0.719-0.242-1.12-0.363c-0.401-0.122-0.775-0.285-1.12-0.49s-0.632-0.477-0.861-0.812
		c-0.229-0.336-0.343-0.779-0.343-1.33c0-0.531,0.105-0.998,0.315-1.399s0.49-0.737,0.84-1.008c0.35-0.271,0.753-0.474,1.211-0.609
		c0.457-0.135,0.929-0.203,1.414-0.203c0.56,0,1.101,0.079,1.624,0.238c0.522,0.158,0.994,0.425,1.414,0.798L217.99,4.466z"/>
</g>
<g>
	<path d="M9.833,4.466c-0.178-0.224-0.418-0.39-0.721-0.497c-0.303-0.106-0.59-0.161-0.861-0.161c-0.159,0-0.322,0.02-0.49,0.057
		S7.435,3.96,7.285,4.039S7.015,4.224,6.921,4.354s-0.14,0.289-0.14,0.476c0,0.299,0.112,0.527,0.336,0.686
		C7.341,5.675,7.624,5.81,7.964,5.922c0.34,0.112,0.707,0.225,1.099,0.336c0.392,0.112,0.758,0.271,1.099,0.477
		s0.623,0.48,0.847,0.825c0.224,0.346,0.336,0.808,0.336,1.387c0,0.551-0.103,1.031-0.308,1.441
		c-0.205,0.411-0.483,0.752-0.833,1.022c-0.35,0.271-0.756,0.472-1.218,0.602c-0.462,0.131-0.95,0.196-1.463,0.196
		c-0.644,0-1.242-0.098-1.792-0.294c-0.551-0.196-1.064-0.514-1.54-0.952l1.554-1.708c0.224,0.299,0.506,0.53,0.847,0.693
		s0.693,0.245,1.057,0.245c0.177,0,0.357-0.021,0.539-0.063c0.182-0.042,0.345-0.104,0.49-0.188s0.261-0.191,0.35-0.322
		c0.088-0.131,0.133-0.285,0.133-0.462c0-0.299-0.114-0.534-0.343-0.707C8.589,8.276,8.302,8.13,7.958,8.008
		c-0.346-0.121-0.719-0.242-1.12-0.363c-0.401-0.122-0.775-0.285-1.12-0.49S5.085,6.678,4.856,6.342
		c-0.229-0.336-0.343-0.779-0.343-1.33c0-0.531,0.105-0.998,0.315-1.399s0.49-0.737,0.84-1.008c0.35-0.271,0.753-0.474,1.211-0.609
		C7.336,1.86,7.808,1.792,8.293,1.792c0.56,0,1.101,0.079,1.624,0.238c0.522,0.158,0.994,0.425,1.414,0.798L9.833,4.466z"/>
</g>
<g>
	<path d="M3.336,42.852c0.608,0,1.1,0.14,1.476,0.42s0.668,0.636,0.877,1.067c0.207,0.433,0.348,0.906,0.42,1.422
		c0.071,0.517,0.107,1.011,0.107,1.482c0,0.473-0.036,0.966-0.107,1.482c-0.072,0.516-0.213,0.989-0.42,1.422
		c-0.209,0.432-0.501,0.788-0.877,1.067c-0.376,0.28-0.867,0.42-1.476,0.42s-1.1-0.14-1.476-0.42
		c-0.377-0.279-0.668-0.636-0.876-1.067c-0.209-0.433-0.349-0.906-0.42-1.422c-0.072-0.517-0.108-1.01-0.108-1.482
		c0-0.472,0.036-0.966,0.108-1.482c0.071-0.516,0.211-0.989,0.42-1.422c0.208-0.432,0.499-0.787,0.876-1.067
		C2.236,42.991,2.728,42.852,3.336,42.852z M3.336,43.644c-0.464,0-0.83,0.124-1.098,0.372c-0.269,0.248-0.471,0.556-0.606,0.924
		s-0.222,0.76-0.258,1.176S1.32,46.907,1.32,47.243s0.018,0.712,0.054,1.128s0.122,0.809,0.258,1.176
		c0.136,0.368,0.338,0.677,0.606,0.925c0.268,0.248,0.634,0.371,1.098,0.371s0.83-0.123,1.098-0.371
		c0.269-0.248,0.471-0.557,0.606-0.925c0.136-0.367,0.222-0.76,0.258-1.176s0.054-0.792,0.054-1.128s-0.018-0.712-0.054-1.128
		s-0.122-0.808-0.258-1.176s-0.338-0.676-0.606-0.924C4.166,43.768,3.8,43.644,3.336,43.644z"/>
	<path d="M10.848,51.491H9.983v-7.416L8.46,45.419l-0.54-0.647l2.16-1.776h0.768V51.491z"/>
</g>
<g>
	<path d="M37.72,42.852c0.608,0,1.1,0.14,1.476,0.42s0.668,0.636,0.877,1.067c0.207,0.433,0.348,0.906,0.42,1.422
		c0.071,0.517,0.107,1.011,0.107,1.482c0,0.473-0.036,0.966-0.107,1.482c-0.072,0.516-0.213,0.989-0.42,1.422
		c-0.209,0.432-0.501,0.788-0.877,1.067c-0.376,0.28-0.867,0.42-1.476,0.42s-1.1-0.14-1.476-0.42
		c-0.377-0.279-0.668-0.636-0.876-1.067c-0.209-0.433-0.349-0.906-0.42-1.422c-0.072-0.517-0.108-1.01-0.108-1.482
		c0-0.472,0.036-0.966,0.108-1.482c0.071-0.516,0.211-0.989,0.42-1.422c0.208-0.432,0.499-0.787,0.876-1.067
		C36.621,42.991,37.112,42.852,37.72,42.852z M37.72,43.644c-0.464,0-0.83,0.124-1.098,0.372c-0.269,0.248-0.471,0.556-0.606,0.924
		s-0.222,0.76-0.258,1.176s-0.054,0.792-0.054,1.128s0.018,0.712,0.054,1.128s0.122,0.809,0.258,1.176
		c0.136,0.368,0.338,0.677,0.606,0.925c0.268,0.248,0.634,0.371,1.098,0.371s0.83-0.123,1.098-0.371
		c0.269-0.248,0.471-0.557,0.606-0.925c0.136-0.367,0.222-0.76,0.258-1.176s0.054-0.792,0.054-1.128s-0.018-0.712-0.054-1.128
		s-0.122-0.808-0.258-1.176s-0.338-0.676-0.606-0.924C38.55,43.768,38.184,43.644,37.72,43.644z"/>
	<path d="M47.032,51.491h-5.399v-0.996l3.384-3.444c0.128-0.128,0.256-0.264,0.384-0.407c0.128-0.145,0.244-0.296,0.349-0.456
		c0.104-0.16,0.188-0.328,0.252-0.504c0.063-0.176,0.096-0.36,0.096-0.553c0-0.231-0.042-0.439-0.126-0.624
		c-0.084-0.184-0.202-0.34-0.354-0.468c-0.151-0.128-0.328-0.226-0.527-0.294c-0.2-0.067-0.412-0.102-0.636-0.102
		c-0.433,0-0.801,0.12-1.104,0.359c-0.304,0.24-0.5,0.564-0.588,0.973l-0.912-0.097c0.12-0.632,0.41-1.128,0.87-1.487
		c0.46-0.36,1.018-0.54,1.674-0.54c0.344,0,0.67,0.046,0.979,0.138c0.308,0.092,0.579,0.23,0.815,0.414s0.424,0.414,0.564,0.689
		c0.14,0.276,0.21,0.599,0.21,0.967c0,0.328-0.051,0.628-0.15,0.899c-0.1,0.272-0.229,0.528-0.39,0.769
		c-0.16,0.239-0.342,0.468-0.546,0.684s-0.414,0.428-0.63,0.636l-2.677,2.652h4.464V51.491z"/>
</g>
<g>
	<path d="M73.148,42.852c0.608,0,1.1,0.14,1.476,0.42s0.668,0.636,0.877,1.067c0.207,0.433,0.348,0.906,0.42,1.422
		c0.071,0.517,0.107,1.011,0.107,1.482c0,0.473-0.036,0.966-0.107,1.482c-0.072,0.516-0.213,0.989-0.42,1.422
		c-0.209,0.432-0.501,0.788-0.877,1.067c-0.376,0.28-0.867,0.42-1.476,0.42s-1.1-0.14-1.476-0.42
		c-0.377-0.279-0.668-0.636-0.876-1.067c-0.209-0.433-0.349-0.906-0.42-1.422c-0.072-0.517-0.108-1.01-0.108-1.482
		c0-0.472,0.036-0.966,0.108-1.482c0.071-0.516,0.211-0.989,0.42-1.422c0.208-0.432,0.499-0.787,0.876-1.067
		C72.048,42.991,72.54,42.852,73.148,42.852z M73.148,43.644c-0.464,0-0.83,0.124-1.098,0.372c-0.269,0.248-0.471,0.556-0.606,0.924
		s-0.222,0.76-0.258,1.176s-0.054,0.792-0.054,1.128s0.018,0.712,0.054,1.128s0.122,0.809,0.258,1.176
		c0.136,0.368,0.338,0.677,0.606,0.925c0.268,0.248,0.634,0.371,1.098,0.371s0.83-0.123,1.098-0.371
		c0.269-0.248,0.471-0.557,0.606-0.925c0.136-0.367,0.222-0.76,0.258-1.176s0.054-0.792,0.054-1.128s-0.018-0.712-0.054-1.128
		s-0.122-0.808-0.258-1.176s-0.338-0.676-0.606-0.924C73.978,43.768,73.612,43.644,73.148,43.644z"/>
	<path d="M78.932,46.644h0.443c0.248,0,0.486-0.028,0.715-0.084c0.228-0.057,0.426-0.146,0.594-0.271s0.302-0.286,0.401-0.486
		c0.101-0.199,0.15-0.439,0.15-0.72c0-0.456-0.138-0.81-0.414-1.062s-0.662-0.378-1.158-0.378c-0.359,0-0.676,0.08-0.947,0.239
		c-0.272,0.16-0.496,0.393-0.673,0.696l-0.756-0.384c0.256-0.456,0.582-0.794,0.979-1.014c0.396-0.221,0.854-0.33,1.374-0.33
		c0.336,0,0.651,0.048,0.947,0.144s0.557,0.238,0.78,0.426c0.224,0.188,0.402,0.42,0.534,0.696s0.198,0.59,0.198,0.942
		c0,0.231-0.038,0.452-0.114,0.659c-0.076,0.209-0.18,0.396-0.312,0.564c-0.133,0.168-0.286,0.314-0.463,0.438
		c-0.176,0.124-0.359,0.218-0.552,0.281l0.036,0.024c0.24,0.048,0.46,0.138,0.66,0.27c0.2,0.133,0.372,0.294,0.516,0.486
		c0.145,0.192,0.256,0.408,0.336,0.648c0.08,0.239,0.12,0.491,0.12,0.756c0,0.392-0.071,0.74-0.216,1.044
		c-0.144,0.304-0.34,0.56-0.588,0.768s-0.536,0.366-0.864,0.475c-0.328,0.107-0.676,0.161-1.044,0.161
		c-0.624,0-1.168-0.136-1.632-0.407c-0.464-0.272-0.812-0.708-1.044-1.309l0.912-0.275c0.144,0.407,0.357,0.71,0.642,0.905
		c0.284,0.196,0.683,0.294,1.194,0.294c0.24,0,0.468-0.039,0.684-0.119s0.406-0.194,0.57-0.343c0.164-0.147,0.292-0.325,0.384-0.533
		s0.139-0.437,0.139-0.685c0-0.319-0.061-0.59-0.181-0.81c-0.12-0.221-0.28-0.398-0.479-0.534c-0.2-0.136-0.431-0.234-0.69-0.294
		c-0.26-0.061-0.53-0.09-0.81-0.09h-0.372V46.644z"/>
</g>
<g>
	<path d="M107.532,42.852c0.608,0,1.1,0.14,1.476,0.42s0.668,0.636,0.877,1.067c0.207,0.433,0.348,0.906,0.42,1.422
		c0.071,0.517,0.107,1.011,0.107,1.482c0,0.473-0.036,0.966-0.107,1.482c-0.072,0.516-0.213,0.989-0.42,1.422
		c-0.209,0.432-0.501,0.788-0.877,1.067c-0.376,0.28-0.867,0.42-1.476,0.42s-1.1-0.14-1.476-0.42
		c-0.377-0.279-0.668-0.636-0.876-1.067c-0.209-0.433-0.349-0.906-0.42-1.422c-0.072-0.517-0.108-1.01-0.108-1.482
		c0-0.472,0.036-0.966,0.108-1.482c0.071-0.516,0.211-0.989,0.42-1.422c0.208-0.432,0.499-0.787,0.876-1.067
		C106.432,42.991,106.923,42.852,107.532,42.852z M107.532,43.644c-0.464,0-0.83,0.124-1.098,0.372
		c-0.269,0.248-0.471,0.556-0.606,0.924s-0.222,0.76-0.258,1.176s-0.054,0.792-0.054,1.128s0.018,0.712,0.054,1.128
		s0.122,0.809,0.258,1.176c0.136,0.368,0.338,0.677,0.606,0.925c0.268,0.248,0.634,0.371,1.098,0.371s0.83-0.123,1.098-0.371
		c0.269-0.248,0.471-0.557,0.606-0.925c0.136-0.367,0.222-0.76,0.258-1.176s0.054-0.792,0.054-1.128s-0.018-0.712-0.054-1.128
		s-0.122-0.808-0.258-1.176s-0.338-0.676-0.606-0.924C108.362,43.768,107.996,43.644,107.532,43.644z"/>
	<path d="M115.86,48.684h1.224v0.792h-1.224v2.016h-0.864v-2.016h-3.672v-0.984l3.432-5.496h1.104V48.684z M114.996,43.859h-0.024
		l-2.928,4.824h2.952V43.859z"/>
</g>
<g>
	<path d="M141.915,42.852c0.608,0,1.1,0.14,1.476,0.42s0.668,0.636,0.877,1.067c0.207,0.433,0.348,0.906,0.42,1.422
		c0.071,0.517,0.107,1.011,0.107,1.482c0,0.473-0.036,0.966-0.107,1.482c-0.072,0.516-0.213,0.989-0.42,1.422
		c-0.209,0.432-0.501,0.788-0.877,1.067c-0.376,0.28-0.867,0.42-1.476,0.42s-1.1-0.14-1.476-0.42
		c-0.377-0.279-0.668-0.636-0.876-1.067c-0.209-0.433-0.349-0.906-0.42-1.422c-0.072-0.517-0.108-1.01-0.108-1.482
		c0-0.472,0.036-0.966,0.108-1.482c0.071-0.516,0.211-0.989,0.42-1.422c0.208-0.432,0.499-0.787,0.876-1.067
		C140.815,42.991,141.307,42.852,141.915,42.852z M141.915,43.644c-0.464,0-0.83,0.124-1.098,0.372
		c-0.269,0.248-0.471,0.556-0.606,0.924s-0.222,0.76-0.258,1.176s-0.054,0.792-0.054,1.128s0.018,0.712,0.054,1.128
		s0.122,0.809,0.258,1.176c0.136,0.368,0.338,0.677,0.606,0.925c0.268,0.248,0.634,0.371,1.098,0.371s0.83-0.123,1.098-0.371
		c0.269-0.248,0.471-0.557,0.606-0.925c0.136-0.367,0.222-0.76,0.258-1.176s0.054-0.792,0.054-1.128s-0.018-0.712-0.054-1.128
		s-0.122-0.808-0.258-1.176s-0.338-0.676-0.606-0.924C142.745,43.768,142.379,43.644,141.915,43.644z"/>
	<path d="M150.831,43.787h-3.468l-0.061,2.556c0.185-0.071,0.372-0.123,0.564-0.155c0.191-0.032,0.384-0.048,0.576-0.048
		c0.399,0,0.764,0.067,1.092,0.203c0.328,0.137,0.609,0.326,0.846,0.57s0.42,0.532,0.552,0.864c0.133,0.332,0.198,0.694,0.198,1.086
		c0,0.408-0.072,0.782-0.216,1.122c-0.145,0.34-0.344,0.632-0.6,0.876c-0.257,0.244-0.559,0.434-0.906,0.57
		c-0.349,0.136-0.727,0.203-1.134,0.203c-0.536,0-1.021-0.128-1.452-0.384c-0.433-0.256-0.765-0.632-0.996-1.128l0.864-0.372
		c0.159,0.336,0.382,0.603,0.669,0.798c0.287,0.196,0.618,0.294,0.993,0.294c0.271,0,0.522-0.05,0.753-0.149
		c0.231-0.1,0.433-0.234,0.604-0.402c0.171-0.168,0.307-0.368,0.406-0.6c0.1-0.232,0.149-0.48,0.149-0.744
		c0-0.296-0.052-0.568-0.155-0.816c-0.104-0.247-0.248-0.462-0.433-0.642c-0.184-0.18-0.403-0.318-0.66-0.414
		c-0.256-0.096-0.535-0.144-0.84-0.144c-0.304,0-0.605,0.042-0.905,0.126c-0.301,0.084-0.587,0.197-0.858,0.342l0.084-4.404h4.332
		V43.787z"/>
</g>
<g>
	<path d="M177.144,42.852c0.608,0,1.1,0.14,1.476,0.42s0.668,0.636,0.877,1.067c0.207,0.433,0.348,0.906,0.42,1.422
		c0.071,0.517,0.107,1.011,0.107,1.482c0,0.473-0.036,0.966-0.107,1.482c-0.072,0.516-0.213,0.989-0.42,1.422
		c-0.209,0.432-0.501,0.788-0.877,1.067c-0.376,0.28-0.867,0.42-1.476,0.42s-1.1-0.14-1.476-0.42
		c-0.377-0.279-0.668-0.636-0.876-1.067c-0.209-0.433-0.349-0.906-0.42-1.422c-0.072-0.517-0.108-1.01-0.108-1.482
		c0-0.472,0.036-0.966,0.108-1.482c0.071-0.516,0.211-0.989,0.42-1.422c0.208-0.432,0.499-0.787,0.876-1.067
		C176.044,42.991,176.536,42.852,177.144,42.852z M177.144,43.644c-0.464,0-0.83,0.124-1.098,0.372
		c-0.269,0.248-0.471,0.556-0.606,0.924s-0.222,0.76-0.258,1.176s-0.054,0.792-0.054,1.128s0.018,0.712,0.054,1.128
		s0.122,0.809,0.258,1.176c0.136,0.368,0.338,0.677,0.606,0.925c0.268,0.248,0.634,0.371,1.098,0.371s0.83-0.123,1.098-0.371
		c0.269-0.248,0.471-0.557,0.606-0.925c0.136-0.367,0.222-0.76,0.258-1.176s0.054-0.792,0.054-1.128s-0.018-0.712-0.054-1.128
		s-0.122-0.808-0.258-1.176s-0.338-0.676-0.606-0.924C177.974,43.768,177.608,43.644,177.144,43.644z"/>
	<path d="M182.784,46.644l0.024,0.023c0.136-0.096,0.318-0.168,0.546-0.216s0.438-0.072,0.63-0.072c0.368,0,0.71,0.066,1.026,0.198
		c0.315,0.132,0.59,0.314,0.821,0.546c0.232,0.232,0.414,0.508,0.547,0.828c0.132,0.32,0.197,0.672,0.197,1.056
		c0,0.393-0.067,0.748-0.204,1.068c-0.136,0.32-0.328,0.596-0.575,0.828c-0.248,0.232-0.54,0.412-0.876,0.54
		c-0.337,0.128-0.704,0.191-1.104,0.191s-0.768-0.063-1.104-0.191s-0.629-0.308-0.876-0.54c-0.248-0.232-0.44-0.508-0.576-0.828
		c-0.137-0.32-0.204-0.676-0.204-1.068c0-0.472,0.069-0.884,0.21-1.235c0.14-0.353,0.313-0.7,0.521-1.044l2.292-3.732h1.021
		L182.784,46.644z M181.92,49.007c0,0.272,0.046,0.521,0.138,0.744c0.092,0.225,0.222,0.418,0.39,0.582s0.368,0.29,0.601,0.378
		c0.231,0.089,0.487,0.132,0.768,0.132s0.536-0.043,0.768-0.132c0.232-0.088,0.433-0.214,0.601-0.378s0.298-0.357,0.39-0.582
		c0.092-0.224,0.139-0.472,0.139-0.744c0-0.271-0.047-0.52-0.139-0.743c-0.092-0.225-0.222-0.416-0.39-0.576
		s-0.368-0.286-0.601-0.378c-0.231-0.092-0.487-0.139-0.768-0.139s-0.536,0.047-0.768,0.139c-0.232,0.092-0.433,0.218-0.601,0.378
		s-0.298,0.352-0.39,0.576C181.966,48.487,181.92,48.735,181.92,49.007z"/>
</g>
<g>
	<path d="M211.529,42.852c0.608,0,1.1,0.14,1.476,0.42s0.668,0.636,0.877,1.067c0.207,0.433,0.348,0.906,0.42,1.422
		c0.071,0.517,0.107,1.011,0.107,1.482c0,0.473-0.036,0.966-0.107,1.482c-0.072,0.516-0.213,0.989-0.42,1.422
		c-0.209,0.432-0.501,0.788-0.877,1.067c-0.376,0.28-0.867,0.42-1.476,0.42s-1.1-0.14-1.476-0.42
		c-0.377-0.279-0.668-0.636-0.876-1.067c-0.209-0.433-0.349-0.906-0.42-1.422c-0.072-0.517-0.108-1.01-0.108-1.482
		c0-0.472,0.036-0.966,0.108-1.482c0.071-0.516,0.211-0.989,0.42-1.422c0.208-0.432,0.499-0.787,0.876-1.067
		C210.429,42.991,210.92,42.852,211.529,42.852z M211.529,43.644c-0.464,0-0.83,0.124-1.098,0.372
		c-0.269,0.248-0.471,0.556-0.606,0.924s-0.222,0.76-0.258,1.176s-0.054,0.792-0.054,1.128s0.018,0.712,0.054,1.128
		s0.122,0.809,0.258,1.176c0.136,0.368,0.338,0.677,0.606,0.925c0.268,0.248,0.634,0.371,1.098,0.371s0.83-0.123,1.098-0.371
		c0.269-0.248,0.471-0.557,0.606-0.925c0.136-0.367,0.222-0.76,0.258-1.176s0.054-0.792,0.054-1.128s-0.018-0.712-0.054-1.128
		s-0.122-0.808-0.258-1.176s-0.338-0.676-0.606-0.924C212.359,43.768,211.993,43.644,211.529,43.644z"/>
	<path d="M220.553,43.787l-3.421,7.704h-0.972l3.492-7.704h-4.14v-0.792h5.04V43.787z"/>
</g>
<g>
	<path d="M3.336,73.242c0.608,0,1.1,0.14,1.476,0.42s0.668,0.636,0.877,1.067c0.207,0.433,0.348,0.906,0.42,1.422
		c0.071,0.517,0.107,1.011,0.107,1.482c0,0.473-0.036,0.966-0.107,1.482c-0.072,0.516-0.213,0.989-0.42,1.422
		c-0.209,0.432-0.501,0.788-0.877,1.067c-0.376,0.28-0.867,0.42-1.476,0.42s-1.1-0.14-1.476-0.42
		c-0.377-0.279-0.668-0.636-0.876-1.067c-0.209-0.433-0.349-0.906-0.42-1.422c-0.072-0.517-0.108-1.01-0.108-1.482
		c0-0.472,0.036-0.966,0.108-1.482c0.071-0.516,0.211-0.989,0.42-1.422c0.208-0.432,0.499-0.787,0.876-1.067
		C2.236,73.382,2.728,73.242,3.336,73.242z M3.336,74.034c-0.464,0-0.83,0.124-1.098,0.372c-0.269,0.248-0.471,0.556-0.606,0.924
		s-0.222,0.76-0.258,1.176S1.32,77.298,1.32,77.634s0.018,0.712,0.054,1.128s0.122,0.809,0.258,1.176
		c0.136,0.368,0.338,0.677,0.606,0.925c0.268,0.248,0.634,0.371,1.098,0.371s0.83-0.123,1.098-0.371
		c0.269-0.248,0.471-0.557,0.606-0.925c0.136-0.367,0.222-0.76,0.258-1.176s0.054-0.792,0.054-1.128s-0.018-0.712-0.054-1.128
		S5.176,75.698,5.04,75.33s-0.338-0.676-0.606-0.924C4.166,74.158,3.8,74.034,3.336,74.034z"/>
	<path d="M8.904,77.357C8.72,77.294,8.55,77.2,8.394,77.076c-0.155-0.124-0.29-0.271-0.401-0.438
		c-0.112-0.168-0.2-0.352-0.265-0.552c-0.063-0.2-0.096-0.408-0.096-0.624c0-0.336,0.064-0.642,0.192-0.918s0.3-0.51,0.516-0.702
		s0.468-0.34,0.756-0.444c0.288-0.104,0.592-0.155,0.912-0.155s0.624,0.052,0.912,0.155c0.288,0.104,0.54,0.252,0.756,0.444
		s0.388,0.426,0.516,0.702s0.192,0.582,0.192,0.918c0,0.216-0.032,0.424-0.096,0.624c-0.064,0.2-0.152,0.384-0.265,0.552
		c-0.111,0.168-0.245,0.314-0.401,0.438s-0.326,0.218-0.51,0.281v0.024c0.479,0.128,0.863,0.392,1.151,0.792s0.433,0.88,0.433,1.44
		c0,0.367-0.074,0.699-0.223,0.995c-0.147,0.297-0.344,0.551-0.588,0.763s-0.528,0.374-0.852,0.485
		c-0.324,0.112-0.666,0.168-1.026,0.168s-0.702-0.056-1.026-0.168c-0.323-0.111-0.607-0.273-0.852-0.485s-0.44-0.466-0.588-0.763
		c-0.148-0.296-0.222-0.628-0.222-0.995c0-0.561,0.144-1.04,0.432-1.44s0.672-0.664,1.152-0.792V77.357z M11.832,79.494
		c0-0.248-0.044-0.479-0.132-0.69c-0.089-0.212-0.21-0.396-0.366-0.552s-0.348-0.278-0.576-0.366
		c-0.228-0.088-0.479-0.132-0.75-0.132c-0.28,0-0.532,0.044-0.756,0.132c-0.225,0.088-0.414,0.21-0.57,0.366
		s-0.277,0.34-0.366,0.552c-0.088,0.212-0.132,0.442-0.132,0.69s0.044,0.478,0.132,0.689c0.089,0.212,0.21,0.396,0.366,0.552
		c0.156,0.156,0.346,0.278,0.57,0.366c0.224,0.089,0.476,0.132,0.756,0.132c0.271,0,0.522-0.043,0.75-0.132
		c0.229-0.088,0.42-0.21,0.576-0.366c0.156-0.155,0.277-0.34,0.366-0.552C11.788,79.972,11.832,79.742,11.832,79.494z M11.52,75.534
		c0-0.217-0.038-0.416-0.113-0.601c-0.076-0.184-0.183-0.342-0.318-0.474s-0.296-0.236-0.48-0.312
		c-0.184-0.075-0.384-0.113-0.6-0.113s-0.416,0.038-0.6,0.113c-0.185,0.076-0.345,0.181-0.48,0.312s-0.242,0.29-0.317,0.474
		c-0.076,0.185-0.114,0.384-0.114,0.601c0,0.216,0.038,0.416,0.114,0.6c0.075,0.185,0.182,0.342,0.317,0.474
		c0.136,0.133,0.296,0.236,0.48,0.312c0.184,0.076,0.384,0.114,0.6,0.114s0.416-0.038,0.6-0.114c0.185-0.076,0.345-0.18,0.48-0.312
		c0.136-0.132,0.242-0.289,0.318-0.474C11.481,75.95,11.52,75.75,11.52,75.534z"/>
</g>
<g>
	<path d="M37.72,73.242c0.608,0,1.1,0.14,1.476,0.42s0.668,0.636,0.877,1.067c0.207,0.433,0.348,0.906,0.42,1.422
		c0.071,0.517,0.107,1.011,0.107,1.482c0,0.473-0.036,0.966-0.107,1.482c-0.072,0.516-0.213,0.989-0.42,1.422
		c-0.209,0.432-0.501,0.788-0.877,1.067c-0.376,0.28-0.867,0.42-1.476,0.42s-1.1-0.14-1.476-0.42
		c-0.377-0.279-0.668-0.636-0.876-1.067c-0.209-0.433-0.349-0.906-0.42-1.422c-0.072-0.517-0.108-1.01-0.108-1.482
		c0-0.472,0.036-0.966,0.108-1.482c0.071-0.516,0.211-0.989,0.42-1.422c0.208-0.432,0.499-0.787,0.876-1.067
		C36.621,73.382,37.112,73.242,37.72,73.242z M37.72,74.034c-0.464,0-0.83,0.124-1.098,0.372c-0.269,0.248-0.471,0.556-0.606,0.924
		s-0.222,0.76-0.258,1.176s-0.054,0.792-0.054,1.128s0.018,0.712,0.054,1.128s0.122,0.809,0.258,1.176
		c0.136,0.368,0.338,0.677,0.606,0.925c0.268,0.248,0.634,0.371,1.098,0.371s0.83-0.123,1.098-0.371
		c0.269-0.248,0.471-0.557,0.606-0.925c0.136-0.367,0.222-0.76,0.258-1.176s0.054-0.792,0.054-1.128s-0.018-0.712-0.054-1.128
		s-0.122-0.808-0.258-1.176s-0.338-0.676-0.606-0.924C38.55,74.158,38.184,74.034,37.72,74.034z"/>
	<path d="M45.424,78.233L45.4,78.21c-0.136,0.096-0.317,0.168-0.546,0.216c-0.228,0.048-0.438,0.072-0.63,0.072
		c-0.368,0-0.71-0.066-1.026-0.198c-0.315-0.132-0.59-0.313-0.821-0.546c-0.232-0.232-0.414-0.508-0.546-0.828
		c-0.133-0.319-0.198-0.672-0.198-1.056c0-0.393,0.067-0.748,0.204-1.068c0.136-0.319,0.328-0.596,0.576-0.828
		c0.247-0.231,0.54-0.412,0.876-0.54s0.703-0.191,1.104-0.191s0.768,0.063,1.104,0.191c0.336,0.128,0.628,0.309,0.876,0.54
		c0.247,0.232,0.439,0.509,0.575,0.828c0.137,0.32,0.204,0.676,0.204,1.068c0,0.472-0.07,0.884-0.21,1.235
		c-0.14,0.353-0.313,0.7-0.521,1.044l-2.292,3.732h-1.021L45.424,78.233z M46.289,75.87c0-0.272-0.047-0.521-0.139-0.744
		s-0.222-0.416-0.39-0.576s-0.368-0.286-0.601-0.378c-0.231-0.092-0.487-0.138-0.768-0.138s-0.536,0.046-0.768,0.138
		c-0.232,0.092-0.433,0.218-0.601,0.378s-0.298,0.353-0.39,0.576s-0.138,0.472-0.138,0.744c0,0.271,0.046,0.52,0.138,0.744
		c0.092,0.224,0.222,0.418,0.39,0.582s0.368,0.29,0.601,0.378c0.231,0.088,0.487,0.132,0.768,0.132s0.536-0.044,0.768-0.132
		c0.232-0.088,0.433-0.214,0.601-0.378s0.298-0.358,0.39-0.582C46.242,76.39,46.289,76.142,46.289,75.87z"/>
</g>
<g>
	<path d="M72.729,81.882h-0.864v-7.416l-1.523,1.344l-0.54-0.647l2.16-1.776h0.768V81.882z"/>
	<path d="M78.561,73.242c0.608,0,1.1,0.14,1.476,0.42s0.668,0.636,0.877,1.067c0.207,0.433,0.348,0.906,0.42,1.422
		c0.071,0.517,0.107,1.011,0.107,1.482c0,0.473-0.036,0.966-0.107,1.482c-0.072,0.516-0.213,0.989-0.42,1.422
		c-0.209,0.432-0.501,0.788-0.877,1.067c-0.376,0.28-0.867,0.42-1.476,0.42s-1.1-0.14-1.476-0.42
		c-0.377-0.279-0.668-0.636-0.876-1.067c-0.209-0.433-0.349-0.906-0.42-1.422c-0.072-0.517-0.108-1.01-0.108-1.482
		c0-0.472,0.036-0.966,0.108-1.482c0.071-0.516,0.211-0.989,0.42-1.422c0.208-0.432,0.499-0.787,0.876-1.067
		C77.461,73.382,77.953,73.242,78.561,73.242z M78.561,74.034c-0.464,0-0.83,0.124-1.098,0.372
		c-0.269,0.248-0.471,0.556-0.606,0.924s-0.222,0.76-0.258,1.176s-0.054,0.792-0.054,1.128s0.018,0.712,0.054,1.128
		s0.122,0.809,0.258,1.176c0.136,0.368,0.338,0.677,0.606,0.925c0.268,0.248,0.634,0.371,1.098,0.371s0.83-0.123,1.098-0.371
		c0.269-0.248,0.471-0.557,0.606-0.925c0.136-0.367,0.222-0.76,0.258-1.176s0.054-0.792,0.054-1.128s-0.018-0.712-0.054-1.128
		s-0.122-0.808-0.258-1.176s-0.338-0.676-0.606-0.924C79.391,74.158,79.025,74.034,78.561,74.034z"/>
</g>
<g>
	<path class="st0" d="M108.372,81.882h-0.864v-7.416l-1.523,1.344l-0.54-0.647l2.16-1.776h0.768V81.882z"/>
	<path class="st0" d="M115.043,81.882h-0.864v-7.416l-1.523,1.344l-0.54-0.647l2.16-1.776h0.768V81.882z"/>
</g>
<g>
	<path d="M142.755,81.882h-0.864v-7.416l-1.523,1.344l-0.54-0.647l2.16-1.776h0.768V81.882z"/>
	<path d="M151.227,81.882h-5.399v-0.996l3.384-3.444c0.128-0.128,0.256-0.264,0.384-0.407c0.128-0.145,0.244-0.296,0.349-0.456
		c0.104-0.16,0.188-0.328,0.252-0.504c0.063-0.176,0.096-0.36,0.096-0.553c0-0.231-0.042-0.439-0.126-0.624
		c-0.084-0.184-0.202-0.34-0.354-0.468c-0.151-0.128-0.328-0.226-0.527-0.294c-0.2-0.067-0.412-0.102-0.636-0.102
		c-0.433,0-0.801,0.12-1.104,0.359c-0.304,0.24-0.5,0.564-0.588,0.973l-0.912-0.097c0.12-0.632,0.41-1.128,0.87-1.487
		c0.46-0.36,1.018-0.54,1.674-0.54c0.344,0,0.67,0.046,0.979,0.138c0.308,0.092,0.579,0.23,0.815,0.414s0.424,0.414,0.564,0.689
		c0.14,0.276,0.21,0.599,0.21,0.967c0,0.328-0.051,0.628-0.15,0.899c-0.1,0.272-0.229,0.528-0.39,0.769
		c-0.16,0.239-0.342,0.468-0.546,0.684s-0.414,0.428-0.63,0.636l-2.677,2.652h4.464V81.882z"/>
</g>
<g>
	<path d="M177.984,81.882h-0.864v-7.416l-1.523,1.344l-0.54-0.647l2.16-1.776h0.768V81.882z"/>
	<path d="M182.928,77.034h0.443c0.248,0,0.486-0.028,0.715-0.084c0.228-0.057,0.426-0.146,0.594-0.271s0.302-0.286,0.401-0.486
		c0.101-0.199,0.15-0.439,0.15-0.72c0-0.456-0.138-0.81-0.414-1.062s-0.662-0.378-1.158-0.378c-0.359,0-0.676,0.08-0.947,0.239
		c-0.272,0.16-0.496,0.393-0.673,0.696l-0.756-0.384c0.256-0.456,0.582-0.794,0.979-1.014c0.396-0.221,0.854-0.33,1.374-0.33
		c0.336,0,0.651,0.048,0.947,0.144s0.557,0.238,0.78,0.426c0.224,0.188,0.402,0.42,0.534,0.696s0.198,0.59,0.198,0.942
		c0,0.231-0.038,0.452-0.114,0.659c-0.076,0.209-0.18,0.396-0.312,0.564c-0.133,0.168-0.286,0.314-0.463,0.438
		c-0.176,0.124-0.359,0.218-0.552,0.281l0.036,0.024c0.24,0.048,0.46,0.138,0.66,0.27c0.2,0.133,0.372,0.294,0.516,0.486
		c0.145,0.192,0.256,0.408,0.336,0.648c0.08,0.239,0.12,0.491,0.12,0.756c0,0.392-0.071,0.74-0.216,1.044
		c-0.144,0.304-0.34,0.56-0.588,0.768s-0.536,0.366-0.864,0.475c-0.328,0.107-0.676,0.161-1.044,0.161
		c-0.624,0-1.168-0.136-1.632-0.407c-0.464-0.272-0.812-0.708-1.044-1.309l0.912-0.275c0.144,0.407,0.357,0.71,0.642,0.905
		c0.284,0.196,0.683,0.294,1.194,0.294c0.24,0,0.468-0.039,0.684-0.119s0.406-0.194,0.57-0.343c0.164-0.147,0.292-0.325,0.384-0.533
		s0.139-0.437,0.139-0.685c0-0.319-0.061-0.59-0.181-0.81c-0.12-0.221-0.28-0.398-0.479-0.534c-0.2-0.136-0.431-0.234-0.69-0.294
		c-0.26-0.061-0.53-0.09-0.81-0.09h-0.372V77.034z"/>
</g>
<g>
	<path d="M212.369,81.882h-0.864v-7.416l-1.523,1.344l-0.54-0.647l2.16-1.776h0.768V81.882z"/>
	<path d="M219.857,79.074h1.224v0.792h-1.224v2.016h-0.864v-2.016h-3.672v-0.984l3.432-5.496h1.104V79.074z M218.993,74.25h-0.024
		l-2.928,4.824h2.952V74.25z"/>
</g>
<g>
	<path class="st0" d="M4.176,112.754H3.312v-7.416l-1.523,1.344l-0.54-0.647l2.16-1.776h0.768V112.754z"/>
	<path class="st0" d="M12.252,105.05H8.784l-0.061,2.556c0.185-0.071,0.372-0.123,0.564-0.155c0.191-0.032,0.384-0.048,0.576-0.048
		c0.399,0,0.764,0.067,1.092,0.203c0.328,0.137,0.609,0.326,0.846,0.57s0.42,0.532,0.552,0.864c0.133,0.332,0.198,0.694,0.198,1.086
		c0,0.408-0.072,0.782-0.216,1.122c-0.145,0.34-0.344,0.632-0.6,0.876c-0.257,0.244-0.559,0.434-0.906,0.57
		c-0.349,0.136-0.727,0.203-1.134,0.203c-0.536,0-1.021-0.128-1.452-0.384c-0.433-0.256-0.765-0.632-0.996-1.128l0.864-0.372
		c0.159,0.336,0.382,0.603,0.669,0.798c0.287,0.196,0.618,0.294,0.993,0.294c0.271,0,0.522-0.05,0.753-0.149
		c0.231-0.1,0.433-0.234,0.604-0.402c0.171-0.168,0.307-0.368,0.406-0.6c0.1-0.232,0.149-0.48,0.149-0.744
		c0-0.296-0.052-0.568-0.155-0.816c-0.104-0.247-0.248-0.462-0.433-0.642c-0.184-0.18-0.403-0.318-0.66-0.414
		c-0.256-0.096-0.535-0.144-0.84-0.144c-0.304,0-0.605,0.042-0.905,0.126c-0.301,0.084-0.587,0.197-0.858,0.342l0.084-4.404h4.332
		V105.05z"/>
</g>
<g>
	<path d="M38.56,112.754h-0.864v-7.416l-1.523,1.344l-0.54-0.647l2.16-1.776h0.768V112.754z"/>
	<path d="M43.36,107.906l0.024,0.023c0.136-0.096,0.318-0.168,0.546-0.216s0.438-0.072,0.63-0.072c0.368,0,0.71,0.066,1.026,0.198
		c0.315,0.132,0.59,0.314,0.821,0.546c0.232,0.232,0.414,0.508,0.547,0.828c0.132,0.32,0.197,0.672,0.197,1.056
		c0,0.393-0.067,0.748-0.204,1.068c-0.136,0.32-0.328,0.596-0.575,0.828c-0.248,0.232-0.54,0.412-0.876,0.54
		c-0.337,0.128-0.704,0.191-1.104,0.191s-0.768-0.063-1.104-0.191s-0.629-0.308-0.876-0.54c-0.248-0.232-0.44-0.508-0.576-0.828
		c-0.137-0.32-0.204-0.676-0.204-1.068c0-0.472,0.069-0.884,0.21-1.235c0.14-0.353,0.313-0.7,0.521-1.044l2.292-3.732h1.021
		L43.36,107.906z M42.497,110.27c0,0.272,0.046,0.521,0.138,0.744c0.092,0.225,0.222,0.418,0.39,0.582s0.368,0.29,0.601,0.378
		c0.231,0.089,0.487,0.132,0.768,0.132s0.536-0.043,0.768-0.132c0.232-0.088,0.433-0.214,0.601-0.378s0.298-0.357,0.39-0.582
		c0.092-0.224,0.139-0.472,0.139-0.744c0-0.271-0.047-0.52-0.139-0.743c-0.092-0.225-0.222-0.416-0.39-0.576
		s-0.368-0.286-0.601-0.378c-0.231-0.092-0.487-0.139-0.768-0.139s-0.536,0.047-0.768,0.139c-0.232,0.092-0.433,0.218-0.601,0.378
		s-0.298,0.352-0.39,0.576C42.542,109.75,42.497,109.998,42.497,110.27z"/>
</g>
<g>
	<path d="M73.358,112.754h-0.864v-7.416l-1.523,1.344l-0.54-0.647l2.16-1.776h0.768V112.754z"/>
	<path d="M81.542,105.05l-3.421,7.704H77.15l3.492-7.704h-4.14v-0.792h5.04V105.05z"/>
</g>
<g>
	<path d="M108.372,112.754h-0.864v-7.416l-1.523,1.344l-0.54-0.647l2.16-1.776h0.768V112.754z"/>
	<path d="M113.1,108.229c-0.185-0.063-0.354-0.157-0.511-0.281c-0.155-0.124-0.29-0.271-0.401-0.438
		c-0.112-0.168-0.2-0.352-0.265-0.552c-0.063-0.2-0.096-0.408-0.096-0.624c0-0.336,0.064-0.642,0.192-0.918s0.3-0.51,0.516-0.702
		s0.468-0.34,0.756-0.444c0.288-0.104,0.592-0.155,0.912-0.155s0.624,0.052,0.912,0.155c0.288,0.104,0.54,0.252,0.756,0.444
		s0.388,0.426,0.516,0.702s0.192,0.582,0.192,0.918c0,0.216-0.032,0.424-0.096,0.624c-0.064,0.2-0.152,0.384-0.265,0.552
		c-0.111,0.168-0.245,0.314-0.401,0.438s-0.326,0.218-0.51,0.281v0.024c0.479,0.128,0.863,0.392,1.151,0.792s0.433,0.88,0.433,1.44
		c0,0.367-0.074,0.699-0.223,0.995c-0.147,0.297-0.344,0.551-0.588,0.763s-0.528,0.374-0.852,0.485
		c-0.324,0.112-0.666,0.168-1.026,0.168s-0.702-0.056-1.026-0.168c-0.323-0.111-0.607-0.273-0.852-0.485s-0.44-0.466-0.588-0.763
		c-0.148-0.296-0.222-0.628-0.222-0.995c0-0.561,0.144-1.04,0.432-1.44s0.672-0.664,1.152-0.792V108.229z M116.028,110.366
		c0-0.248-0.044-0.479-0.132-0.69c-0.089-0.212-0.21-0.396-0.366-0.552s-0.348-0.278-0.576-0.366
		c-0.228-0.088-0.479-0.132-0.75-0.132c-0.28,0-0.532,0.044-0.756,0.132c-0.225,0.088-0.414,0.21-0.57,0.366
		s-0.277,0.34-0.366,0.552c-0.088,0.212-0.132,0.442-0.132,0.69s0.044,0.478,0.132,0.689c0.089,0.212,0.21,0.396,0.366,0.552
		c0.156,0.156,0.346,0.278,0.57,0.366c0.224,0.089,0.476,0.132,0.756,0.132c0.271,0,0.522-0.043,0.75-0.132
		c0.229-0.088,0.42-0.21,0.576-0.366c0.156-0.155,0.277-0.34,0.366-0.552C115.984,110.844,116.028,110.614,116.028,110.366z
		 M115.715,106.406c0-0.217-0.038-0.416-0.113-0.601c-0.076-0.184-0.183-0.342-0.318-0.474s-0.296-0.236-0.48-0.312
		c-0.184-0.075-0.384-0.113-0.6-0.113s-0.416,0.038-0.6,0.113c-0.185,0.076-0.345,0.181-0.48,0.312s-0.242,0.29-0.317,0.474
		c-0.076,0.185-0.114,0.384-0.114,0.601c0,0.216,0.038,0.416,0.114,0.6c0.075,0.185,0.182,0.342,0.317,0.474
		c0.136,0.133,0.296,0.236,0.48,0.312c0.184,0.076,0.384,0.114,0.6,0.114s0.416-0.038,0.6-0.114c0.185-0.076,0.345-0.18,0.48-0.312
		c0.136-0.132,0.242-0.289,0.318-0.474C115.677,106.822,115.715,106.622,115.715,106.406z"/>
</g>
<g>
	<path d="M142.755,112.754h-0.864v-7.416l-1.523,1.344l-0.54-0.647l2.16-1.776h0.768V112.754z"/>
	<path d="M149.619,109.105l-0.024-0.023c-0.136,0.096-0.317,0.168-0.546,0.216c-0.228,0.048-0.438,0.072-0.63,0.072
		c-0.368,0-0.71-0.066-1.026-0.198c-0.315-0.132-0.59-0.313-0.821-0.546c-0.232-0.232-0.414-0.508-0.546-0.828
		c-0.133-0.319-0.198-0.672-0.198-1.056c0-0.393,0.067-0.748,0.204-1.068c0.136-0.319,0.328-0.596,0.576-0.828
		c0.247-0.231,0.54-0.412,0.876-0.54s0.703-0.191,1.104-0.191s0.768,0.063,1.104,0.191c0.336,0.128,0.628,0.309,0.876,0.54
		c0.247,0.232,0.439,0.509,0.575,0.828c0.137,0.32,0.204,0.676,0.204,1.068c0,0.472-0.07,0.884-0.21,1.235
		c-0.14,0.353-0.313,0.7-0.521,1.044l-2.292,3.732h-1.021L149.619,109.105z M150.483,106.742c0-0.272-0.047-0.521-0.139-0.744
		s-0.222-0.416-0.39-0.576s-0.368-0.286-0.601-0.378c-0.231-0.092-0.487-0.138-0.768-0.138s-0.536,0.046-0.768,0.138
		c-0.232,0.092-0.433,0.218-0.601,0.378s-0.298,0.353-0.39,0.576s-0.138,0.472-0.138,0.744c0,0.271,0.046,0.52,0.138,0.744
		c0.092,0.224,0.222,0.418,0.39,0.582s0.368,0.29,0.601,0.378c0.231,0.088,0.487,0.132,0.768,0.132s0.536-0.044,0.768-0.132
		c0.232-0.088,0.433-0.214,0.601-0.378s0.298-0.358,0.39-0.582C150.437,107.262,150.483,107.014,150.483,106.742z"/>
</g>
<g>
	<path d="M179.784,112.753h-5.399v-0.996l3.384-3.444c0.128-0.128,0.256-0.264,0.384-0.407c0.128-0.145,0.244-0.296,0.349-0.456
		c0.104-0.16,0.188-0.328,0.252-0.504c0.063-0.176,0.096-0.36,0.096-0.553c0-0.231-0.042-0.439-0.126-0.624
		c-0.084-0.184-0.202-0.34-0.354-0.468c-0.151-0.128-0.328-0.226-0.527-0.294c-0.2-0.067-0.412-0.102-0.636-0.102
		c-0.433,0-0.801,0.12-1.104,0.359c-0.304,0.24-0.5,0.564-0.588,0.973l-0.912-0.097c0.12-0.632,0.41-1.128,0.87-1.487
		c0.46-0.36,1.018-0.54,1.674-0.54c0.344,0,0.67,0.046,0.979,0.138c0.308,0.092,0.579,0.23,0.815,0.414s0.424,0.414,0.564,0.689
		c0.14,0.276,0.21,0.599,0.21,0.967c0,0.328-0.051,0.628-0.15,0.899c-0.1,0.272-0.229,0.528-0.39,0.769
		c-0.16,0.239-0.342,0.468-0.546,0.684s-0.414,0.428-0.63,0.636l-2.677,2.652h4.464V112.753z"/>
	<path d="M183.816,104.113c0.608,0,1.1,0.14,1.476,0.42s0.668,0.636,0.877,1.067c0.207,0.433,0.348,0.906,0.42,1.422
		c0.071,0.517,0.107,1.011,0.107,1.482c0,0.473-0.036,0.966-0.107,1.482c-0.072,0.516-0.213,0.989-0.42,1.422
		c-0.209,0.432-0.501,0.788-0.877,1.067c-0.376,0.28-0.867,0.42-1.476,0.42s-1.1-0.14-1.476-0.42
		c-0.377-0.279-0.668-0.636-0.876-1.067c-0.209-0.433-0.349-0.906-0.42-1.422c-0.072-0.517-0.108-1.01-0.108-1.482
		c0-0.472,0.036-0.966,0.108-1.482c0.071-0.516,0.211-0.989,0.42-1.422c0.208-0.432,0.499-0.787,0.876-1.067
		C182.716,104.253,183.208,104.113,183.816,104.113z M183.816,104.905c-0.464,0-0.83,0.124-1.098,0.372
		c-0.269,0.248-0.471,0.556-0.606,0.924s-0.222,0.76-0.258,1.176s-0.054,0.792-0.054,1.128s0.018,0.712,0.054,1.128
		s0.122,0.809,0.258,1.176c0.136,0.368,0.338,0.677,0.606,0.925c0.268,0.248,0.634,0.371,1.098,0.371s0.83-0.123,1.098-0.371
		c0.269-0.248,0.471-0.557,0.606-0.925c0.136-0.367,0.222-0.76,0.258-1.176s0.054-0.792,0.054-1.128s-0.018-0.712-0.054-1.128
		s-0.122-0.808-0.258-1.176s-0.338-0.676-0.606-0.924C184.646,105.029,184.28,104.905,183.816,104.905z"/>
</g>
<g>
	<path d="M214.168,112.753h-5.399v-0.996l3.384-3.444c0.128-0.128,0.256-0.264,0.384-0.407c0.128-0.145,0.244-0.296,0.349-0.456
		c0.104-0.16,0.188-0.328,0.252-0.504c0.063-0.176,0.096-0.36,0.096-0.553c0-0.231-0.042-0.439-0.126-0.624
		c-0.084-0.184-0.202-0.34-0.354-0.468c-0.151-0.128-0.328-0.226-0.527-0.294c-0.2-0.067-0.412-0.102-0.636-0.102
		c-0.433,0-0.801,0.12-1.104,0.359c-0.304,0.24-0.5,0.564-0.588,0.973l-0.912-0.097c0.12-0.632,0.41-1.128,0.87-1.487
		c0.46-0.36,1.018-0.54,1.674-0.54c0.344,0,0.67,0.046,0.979,0.138c0.308,0.092,0.579,0.23,0.815,0.414s0.424,0.414,0.564,0.689
		c0.14,0.276,0.21,0.599,0.21,0.967c0,0.328-0.051,0.628-0.15,0.899c-0.1,0.272-0.229,0.528-0.39,0.769
		c-0.16,0.239-0.342,0.468-0.546,0.684s-0.414,0.428-0.63,0.636l-2.677,2.652h4.464V112.753z"/>
	<path d="M219.041,112.753h-0.864v-7.416l-1.523,1.344l-0.54-0.647l2.16-1.776h0.768V112.753z"/>
</g>
<g>
	<path d="M5.976,147.224H0.576v-0.996l3.384-3.444c0.128-0.128,0.256-0.264,0.384-0.407c0.128-0.145,0.244-0.296,0.349-0.456
		c0.104-0.16,0.188-0.328,0.252-0.504c0.063-0.176,0.096-0.36,0.096-0.553c0-0.231-0.042-0.439-0.126-0.624
		c-0.084-0.184-0.202-0.34-0.354-0.468c-0.151-0.128-0.328-0.226-0.527-0.294c-0.2-0.067-0.412-0.102-0.636-0.102
		c-0.433,0-0.801,0.12-1.104,0.359c-0.304,0.24-0.5,0.564-0.588,0.973l-0.912-0.097c0.12-0.632,0.41-1.128,0.87-1.487
		c0.46-0.36,1.018-0.54,1.674-0.54c0.344,0,0.67,0.046,0.979,0.138c0.308,0.092,0.579,0.23,0.815,0.414s0.424,0.414,0.564,0.689
		c0.14,0.276,0.21,0.599,0.21,0.967c0,0.328-0.051,0.628-0.15,0.899c-0.1,0.272-0.229,0.528-0.39,0.769
		c-0.16,0.239-0.342,0.468-0.546,0.684s-0.414,0.428-0.63,0.636l-2.677,2.652h4.464V147.224z"/>
	<path d="M12.647,147.224H7.248v-0.996l3.384-3.444c0.128-0.128,0.256-0.264,0.384-0.407c0.128-0.145,0.244-0.296,0.349-0.456
		c0.104-0.16,0.188-0.328,0.252-0.504c0.063-0.176,0.096-0.36,0.096-0.553c0-0.231-0.042-0.439-0.126-0.624
		c-0.084-0.184-0.202-0.34-0.354-0.468c-0.151-0.128-0.328-0.226-0.527-0.294c-0.2-0.067-0.412-0.102-0.636-0.102
		c-0.433,0-0.801,0.12-1.104,0.359c-0.304,0.24-0.5,0.564-0.588,0.973l-0.912-0.097c0.12-0.632,0.41-1.128,0.87-1.487
		c0.46-0.36,1.018-0.54,1.674-0.54c0.344,0,0.67,0.046,0.979,0.138c0.308,0.092,0.579,0.23,0.815,0.414s0.424,0.414,0.564,0.689
		c0.14,0.276,0.21,0.599,0.21,0.967c0,0.328-0.051,0.628-0.15,0.899c-0.1,0.272-0.229,0.528-0.39,0.769
		c-0.16,0.239-0.342,0.468-0.546,0.684s-0.414,0.428-0.63,0.636l-2.677,2.652h4.464V147.224z"/>
</g>
<g>
	<path d="M40.36,147.224H34.96v-0.996l3.384-3.444c0.128-0.128,0.256-0.264,0.384-0.407c0.128-0.145,0.244-0.296,0.349-0.456
		c0.104-0.16,0.188-0.328,0.252-0.504c0.063-0.176,0.096-0.36,0.096-0.553c0-0.231-0.042-0.439-0.126-0.624
		c-0.084-0.184-0.202-0.34-0.354-0.468c-0.151-0.128-0.328-0.226-0.527-0.294c-0.2-0.067-0.412-0.102-0.636-0.102
		c-0.433,0-0.801,0.12-1.104,0.359c-0.304,0.24-0.5,0.564-0.588,0.973l-0.912-0.097c0.12-0.632,0.41-1.128,0.87-1.487
		c0.46-0.36,1.018-0.54,1.674-0.54c0.344,0,0.67,0.046,0.979,0.138c0.308,0.092,0.579,0.23,0.815,0.414s0.424,0.414,0.564,0.689
		c0.14,0.276,0.21,0.599,0.21,0.967c0,0.328-0.051,0.628-0.15,0.899c-0.1,0.272-0.229,0.528-0.39,0.769
		c-0.16,0.239-0.342,0.468-0.546,0.684s-0.414,0.428-0.63,0.636l-2.677,2.652h4.464V147.224z"/>
	<path d="M43.504,142.376h0.443c0.248,0,0.486-0.028,0.715-0.084c0.228-0.057,0.426-0.146,0.594-0.271s0.302-0.286,0.401-0.486
		c0.101-0.199,0.15-0.439,0.15-0.72c0-0.456-0.138-0.81-0.414-1.062s-0.662-0.378-1.158-0.378c-0.359,0-0.676,0.08-0.947,0.239
		c-0.272,0.16-0.496,0.393-0.673,0.696l-0.756-0.384c0.256-0.456,0.582-0.794,0.979-1.014c0.396-0.221,0.854-0.33,1.374-0.33
		c0.336,0,0.651,0.048,0.947,0.144s0.557,0.238,0.78,0.426c0.224,0.188,0.402,0.42,0.534,0.696s0.198,0.59,0.198,0.942
		c0,0.231-0.038,0.452-0.114,0.659c-0.076,0.209-0.18,0.396-0.312,0.564c-0.133,0.168-0.286,0.314-0.463,0.438
		c-0.176,0.124-0.359,0.218-0.552,0.281l0.036,0.024c0.24,0.048,0.46,0.138,0.66,0.27c0.2,0.133,0.372,0.294,0.516,0.486
		c0.145,0.192,0.256,0.408,0.336,0.648c0.08,0.239,0.12,0.491,0.12,0.756c0,0.392-0.071,0.74-0.216,1.044
		c-0.144,0.304-0.34,0.56-0.588,0.768s-0.536,0.366-0.864,0.475c-0.328,0.107-0.676,0.161-1.044,0.161
		c-0.624,0-1.168-0.136-1.632-0.407c-0.464-0.272-0.812-0.708-1.044-1.309l0.912-0.275c0.144,0.407,0.357,0.71,0.642,0.905
		c0.284,0.196,0.683,0.294,1.194,0.294c0.24,0,0.468-0.039,0.684-0.119s0.406-0.194,0.57-0.343c0.164-0.147,0.292-0.325,0.384-0.533
		s0.139-0.437,0.139-0.685c0-0.319-0.061-0.59-0.181-0.81c-0.12-0.221-0.28-0.398-0.479-0.534c-0.2-0.136-0.431-0.234-0.69-0.294
		c-0.26-0.061-0.53-0.09-0.81-0.09h-0.372V142.376z"/>
</g>
<g>
	<path d="M75.158,147.224h-5.399v-0.996l3.384-3.444c0.128-0.128,0.256-0.264,0.384-0.407c0.128-0.145,0.244-0.296,0.349-0.456
		c0.104-0.16,0.188-0.328,0.252-0.504c0.063-0.176,0.096-0.36,0.096-0.553c0-0.231-0.042-0.439-0.126-0.624
		c-0.084-0.184-0.202-0.34-0.354-0.468c-0.151-0.128-0.328-0.226-0.527-0.294c-0.2-0.067-0.412-0.102-0.636-0.102
		c-0.433,0-0.801,0.12-1.104,0.359c-0.304,0.24-0.5,0.564-0.588,0.973l-0.912-0.097c0.12-0.632,0.41-1.128,0.87-1.487
		c0.46-0.36,1.018-0.54,1.674-0.54c0.344,0,0.67,0.046,0.979,0.138c0.308,0.092,0.579,0.23,0.815,0.414s0.424,0.414,0.564,0.689
		c0.14,0.276,0.21,0.599,0.21,0.967c0,0.328-0.051,0.628-0.15,0.899c-0.1,0.272-0.229,0.528-0.39,0.769
		c-0.16,0.239-0.342,0.468-0.546,0.684s-0.414,0.428-0.63,0.636l-2.677,2.652h4.464V147.224z"/>
	<path d="M80.846,144.416h1.224v0.792h-1.224v2.016h-0.864v-2.016H76.31v-0.984l3.432-5.496h1.104V144.416z M79.982,139.592h-0.024
		l-2.928,4.824h2.952V139.592z"/>
</g>
<g>
	<path d="M110.171,147.224h-5.399v-0.996l3.384-3.444c0.128-0.128,0.256-0.264,0.384-0.407c0.128-0.145,0.244-0.296,0.349-0.456
		c0.104-0.16,0.188-0.328,0.252-0.504c0.063-0.176,0.096-0.36,0.096-0.553c0-0.231-0.042-0.439-0.126-0.624
		c-0.084-0.184-0.202-0.34-0.354-0.468c-0.151-0.128-0.328-0.226-0.527-0.294c-0.2-0.067-0.412-0.102-0.636-0.102
		c-0.433,0-0.801,0.12-1.104,0.359c-0.304,0.24-0.5,0.564-0.588,0.973l-0.912-0.097c0.12-0.632,0.41-1.128,0.87-1.487
		c0.46-0.36,1.018-0.54,1.674-0.54c0.344,0,0.67,0.046,0.979,0.138c0.308,0.092,0.579,0.23,0.815,0.414s0.424,0.414,0.564,0.689
		c0.14,0.276,0.21,0.599,0.21,0.967c0,0.328-0.051,0.628-0.15,0.899c-0.1,0.272-0.229,0.528-0.39,0.769
		c-0.16,0.239-0.342,0.468-0.546,0.684s-0.414,0.428-0.63,0.636l-2.677,2.652h4.464V147.224z"/>
	<path d="M116.448,139.52h-3.468l-0.061,2.556c0.185-0.071,0.372-0.123,0.564-0.155c0.191-0.032,0.384-0.048,0.576-0.048
		c0.399,0,0.764,0.067,1.092,0.203c0.328,0.137,0.609,0.326,0.846,0.57s0.42,0.532,0.552,0.864c0.133,0.332,0.198,0.694,0.198,1.086
		c0,0.408-0.072,0.782-0.216,1.122c-0.145,0.34-0.344,0.632-0.6,0.876c-0.257,0.244-0.559,0.434-0.906,0.57
		c-0.349,0.136-0.727,0.203-1.134,0.203c-0.536,0-1.021-0.128-1.452-0.384c-0.433-0.256-0.765-0.632-0.996-1.128l0.864-0.372
		c0.159,0.336,0.382,0.603,0.669,0.798c0.287,0.196,0.618,0.294,0.993,0.294c0.271,0,0.522-0.05,0.753-0.149
		c0.231-0.1,0.433-0.234,0.604-0.402c0.171-0.168,0.307-0.368,0.406-0.6c0.1-0.232,0.149-0.48,0.149-0.744
		c0-0.296-0.052-0.568-0.155-0.816c-0.104-0.247-0.248-0.462-0.433-0.642c-0.184-0.18-0.403-0.318-0.66-0.414
		c-0.256-0.096-0.535-0.144-0.84-0.144c-0.304,0-0.605,0.042-0.905,0.126c-0.301,0.084-0.587,0.197-0.858,0.342l0.084-4.404h4.332
		V139.52z"/>
</g>
<g>
	<path d="M144.555,147.224h-5.399v-0.996l3.384-3.444c0.128-0.128,0.256-0.264,0.384-0.407c0.128-0.145,0.244-0.296,0.349-0.456
		c0.104-0.16,0.188-0.328,0.252-0.504c0.063-0.176,0.096-0.36,0.096-0.553c0-0.231-0.042-0.439-0.126-0.624
		c-0.084-0.184-0.202-0.34-0.354-0.468c-0.151-0.128-0.328-0.226-0.527-0.294c-0.2-0.067-0.412-0.102-0.636-0.102
		c-0.433,0-0.801,0.12-1.104,0.359c-0.304,0.24-0.5,0.564-0.588,0.973l-0.912-0.097c0.12-0.632,0.41-1.128,0.87-1.487
		c0.46-0.36,1.018-0.54,1.674-0.54c0.344,0,0.67,0.046,0.979,0.138c0.308,0.092,0.579,0.23,0.815,0.414s0.424,0.414,0.564,0.689
		c0.14,0.276,0.21,0.599,0.21,0.967c0,0.328-0.051,0.628-0.15,0.899c-0.1,0.272-0.229,0.528-0.39,0.769
		c-0.16,0.239-0.342,0.468-0.546,0.684s-0.414,0.428-0.63,0.636l-2.677,2.652h4.464V147.224z"/>
	<path d="M147.555,142.376l0.024,0.023c0.136-0.096,0.318-0.168,0.546-0.216s0.438-0.072,0.63-0.072c0.368,0,0.71,0.066,1.026,0.198
		c0.315,0.132,0.59,0.314,0.821,0.546c0.232,0.232,0.414,0.508,0.547,0.828c0.132,0.32,0.197,0.672,0.197,1.056
		c0,0.393-0.067,0.748-0.204,1.068c-0.136,0.32-0.328,0.596-0.575,0.828c-0.248,0.232-0.54,0.412-0.876,0.54
		c-0.337,0.128-0.704,0.191-1.104,0.191s-0.768-0.063-1.104-0.191s-0.629-0.308-0.876-0.54c-0.248-0.232-0.44-0.508-0.576-0.828
		c-0.137-0.32-0.204-0.676-0.204-1.068c0-0.472,0.069-0.884,0.21-1.235c0.14-0.353,0.313-0.7,0.521-1.044l2.292-3.732h1.021
		L147.555,142.376z M146.691,144.739c0,0.272,0.046,0.521,0.138,0.744c0.092,0.225,0.222,0.418,0.39,0.582s0.368,0.29,0.601,0.378
		c0.231,0.089,0.487,0.132,0.768,0.132s0.536-0.043,0.768-0.132c0.232-0.088,0.433-0.214,0.601-0.378s0.298-0.357,0.39-0.582
		c0.092-0.224,0.139-0.472,0.139-0.744c0-0.271-0.047-0.52-0.139-0.743c-0.092-0.225-0.222-0.416-0.39-0.576
		s-0.368-0.286-0.601-0.378c-0.231-0.092-0.487-0.139-0.768-0.139s-0.536,0.047-0.768,0.139c-0.232,0.092-0.433,0.218-0.601,0.378
		s-0.298,0.352-0.39,0.576C146.737,144.22,146.691,144.468,146.691,144.739z"/>
</g>
<g>
	<path d="M179.784,147.224h-5.399v-0.996l3.384-3.444c0.128-0.128,0.256-0.264,0.384-0.407c0.128-0.145,0.244-0.296,0.349-0.456
		c0.104-0.16,0.188-0.328,0.252-0.504c0.063-0.176,0.096-0.36,0.096-0.553c0-0.231-0.042-0.439-0.126-0.624
		c-0.084-0.184-0.202-0.34-0.354-0.468c-0.151-0.128-0.328-0.226-0.527-0.294c-0.2-0.067-0.412-0.102-0.636-0.102
		c-0.433,0-0.801,0.12-1.104,0.359c-0.304,0.24-0.5,0.564-0.588,0.973l-0.912-0.097c0.12-0.632,0.41-1.128,0.87-1.487
		c0.46-0.36,1.018-0.54,1.674-0.54c0.344,0,0.67,0.046,0.979,0.138c0.308,0.092,0.579,0.23,0.815,0.414s0.424,0.414,0.564,0.689
		c0.14,0.276,0.21,0.599,0.21,0.967c0,0.328-0.051,0.628-0.15,0.899c-0.1,0.272-0.229,0.528-0.39,0.769
		c-0.16,0.239-0.342,0.468-0.546,0.684s-0.414,0.428-0.63,0.636l-2.677,2.652h4.464V147.224z"/>
	<path d="M186.168,139.52l-3.421,7.704h-0.972l3.492-7.704h-4.14v-0.792h5.04V139.52z"/>
</g>
<g>
	<path class="st0" d="M214.168,147.224h-5.399v-0.996l3.384-3.444c0.128-0.128,0.256-0.264,0.384-0.407
		c0.128-0.145,0.244-0.296,0.349-0.456c0.104-0.16,0.188-0.328,0.252-0.504c0.063-0.176,0.096-0.36,0.096-0.553
		c0-0.231-0.042-0.439-0.126-0.624c-0.084-0.184-0.202-0.34-0.354-0.468c-0.151-0.128-0.328-0.226-0.527-0.294
		c-0.2-0.067-0.412-0.102-0.636-0.102c-0.433,0-0.801,0.12-1.104,0.359c-0.304,0.24-0.5,0.564-0.588,0.973l-0.912-0.097
		c0.12-0.632,0.41-1.128,0.87-1.487c0.46-0.36,1.018-0.54,1.674-0.54c0.344,0,0.67,0.046,0.979,0.138
		c0.308,0.092,0.579,0.23,0.815,0.414s0.424,0.414,0.564,0.689c0.14,0.276,0.21,0.599,0.21,0.967c0,0.328-0.051,0.628-0.15,0.899
		c-0.1,0.272-0.229,0.528-0.39,0.769c-0.16,0.239-0.342,0.468-0.546,0.684s-0.414,0.428-0.63,0.636l-2.677,2.652h4.464V147.224z"/>
	<path class="st0" d="M217.097,142.699c-0.185-0.063-0.354-0.157-0.511-0.281c-0.155-0.124-0.29-0.271-0.401-0.438
		c-0.112-0.168-0.2-0.352-0.265-0.552c-0.063-0.2-0.096-0.408-0.096-0.624c0-0.336,0.064-0.642,0.192-0.918s0.3-0.51,0.516-0.702
		s0.468-0.34,0.756-0.444c0.288-0.104,0.592-0.155,0.912-0.155s0.624,0.052,0.912,0.155c0.288,0.104,0.54,0.252,0.756,0.444
		s0.388,0.426,0.516,0.702s0.192,0.582,0.192,0.918c0,0.216-0.032,0.424-0.096,0.624c-0.064,0.2-0.152,0.384-0.265,0.552
		c-0.111,0.168-0.245,0.314-0.401,0.438s-0.326,0.218-0.51,0.281v0.024c0.479,0.128,0.863,0.392,1.151,0.792s0.433,0.88,0.433,1.44
		c0,0.367-0.074,0.699-0.223,0.995c-0.147,0.297-0.344,0.551-0.588,0.763s-0.528,0.374-0.852,0.485
		c-0.324,0.112-0.666,0.168-1.026,0.168s-0.702-0.056-1.026-0.168c-0.323-0.111-0.607-0.273-0.852-0.485s-0.44-0.466-0.588-0.763
		c-0.148-0.296-0.222-0.628-0.222-0.995c0-0.561,0.144-1.04,0.432-1.44s0.672-0.664,1.152-0.792V142.699z M220.025,144.836
		c0-0.248-0.044-0.479-0.132-0.69c-0.089-0.212-0.21-0.396-0.366-0.552s-0.348-0.278-0.576-0.366
		c-0.228-0.088-0.479-0.132-0.75-0.132c-0.28,0-0.532,0.044-0.756,0.132c-0.225,0.088-0.414,0.21-0.57,0.366
		s-0.277,0.34-0.366,0.552c-0.088,0.212-0.132,0.442-0.132,0.69s0.044,0.478,0.132,0.689c0.089,0.212,0.21,0.396,0.366,0.552
		c0.156,0.156,0.346,0.278,0.57,0.366c0.224,0.089,0.476,0.132,0.756,0.132c0.271,0,0.522-0.043,0.75-0.132
		c0.229-0.088,0.42-0.21,0.576-0.366c0.156-0.155,0.277-0.34,0.366-0.552C219.981,145.313,220.025,145.084,220.025,144.836z
		 M219.712,140.876c0-0.217-0.038-0.416-0.113-0.601c-0.076-0.184-0.183-0.342-0.318-0.474s-0.296-0.236-0.48-0.312
		c-0.184-0.075-0.384-0.113-0.6-0.113s-0.416,0.038-0.6,0.113c-0.185,0.076-0.345,0.181-0.48,0.312s-0.242,0.29-0.317,0.474
		c-0.076,0.185-0.114,0.384-0.114,0.601c0,0.216,0.038,0.416,0.114,0.6c0.075,0.185,0.182,0.342,0.317,0.474
		c0.136,0.133,0.296,0.236,0.48,0.312c0.184,0.076,0.384,0.114,0.6,0.114s0.416-0.038,0.6-0.114c0.185-0.076,0.345-0.18,0.48-0.312
		c0.136-0.132,0.242-0.289,0.318-0.474C219.674,141.292,219.712,141.092,219.712,140.876z"/>
</g>
<g>
	<path d="M5.976,178.274H0.576v-0.996l3.384-3.444c0.128-0.128,0.256-0.264,0.384-0.407c0.128-0.145,0.244-0.296,0.349-0.456
		c0.104-0.16,0.188-0.328,0.252-0.504c0.063-0.176,0.096-0.36,0.096-0.553c0-0.231-0.042-0.439-0.126-0.624
		c-0.084-0.184-0.202-0.34-0.354-0.468c-0.151-0.128-0.328-0.226-0.527-0.294c-0.2-0.067-0.412-0.102-0.636-0.102
		c-0.433,0-0.801,0.12-1.104,0.359c-0.304,0.24-0.5,0.564-0.588,0.973l-0.912-0.097c0.12-0.632,0.41-1.128,0.87-1.487
		c0.46-0.36,1.018-0.54,1.674-0.54c0.344,0,0.67,0.046,0.979,0.138c0.308,0.092,0.579,0.23,0.815,0.414s0.424,0.414,0.564,0.689
		c0.14,0.276,0.21,0.599,0.21,0.967c0,0.328-0.051,0.628-0.15,0.899c-0.1,0.272-0.229,0.528-0.39,0.769
		c-0.16,0.239-0.342,0.468-0.546,0.684s-0.414,0.428-0.63,0.636l-2.677,2.652h4.464V178.274z"/>
	<path d="M11.04,174.626l-0.024-0.023c-0.136,0.096-0.317,0.168-0.546,0.216c-0.228,0.048-0.438,0.072-0.63,0.072
		c-0.368,0-0.71-0.066-1.026-0.198c-0.315-0.132-0.59-0.313-0.821-0.546c-0.232-0.232-0.414-0.508-0.546-0.828
		c-0.133-0.319-0.198-0.672-0.198-1.056c0-0.393,0.067-0.748,0.204-1.068c0.136-0.319,0.328-0.596,0.576-0.828
		c0.247-0.231,0.54-0.412,0.876-0.54s0.703-0.191,1.104-0.191s0.768,0.063,1.104,0.191c0.336,0.128,0.628,0.309,0.876,0.54
		c0.247,0.232,0.439,0.509,0.575,0.828c0.137,0.32,0.204,0.676,0.204,1.068c0,0.472-0.07,0.884-0.21,1.235
		c-0.14,0.353-0.313,0.7-0.521,1.044l-2.292,3.732H8.724L11.04,174.626z M11.904,172.263c0-0.272-0.047-0.521-0.139-0.744
		s-0.222-0.416-0.39-0.576s-0.368-0.286-0.601-0.378c-0.231-0.092-0.487-0.138-0.768-0.138s-0.536,0.046-0.768,0.138
		c-0.232,0.092-0.433,0.218-0.601,0.378s-0.298,0.353-0.39,0.576s-0.138,0.472-0.138,0.744c0,0.271,0.046,0.52,0.138,0.744
		c0.092,0.224,0.222,0.418,0.39,0.582s0.368,0.29,0.601,0.378c0.231,0.088,0.487,0.132,0.768,0.132s0.536-0.044,0.768-0.132
		c0.232-0.088,0.433-0.214,0.601-0.378s0.298-0.358,0.39-0.582C11.857,172.782,11.904,172.534,11.904,172.263z"/>
</g>
<g>
	<path d="M36.833,173.427h0.443c0.248,0,0.486-0.028,0.715-0.084c0.228-0.057,0.426-0.146,0.594-0.271s0.302-0.286,0.401-0.486
		c0.101-0.199,0.15-0.439,0.15-0.72c0-0.456-0.138-0.81-0.414-1.062s-0.662-0.378-1.158-0.378c-0.359,0-0.676,0.08-0.947,0.239
		c-0.272,0.16-0.496,0.393-0.673,0.696l-0.756-0.384c0.256-0.456,0.582-0.794,0.979-1.014c0.396-0.221,0.854-0.33,1.374-0.33
		c0.336,0,0.651,0.048,0.947,0.144s0.557,0.238,0.78,0.426c0.224,0.188,0.402,0.42,0.534,0.696S40,171.49,40,171.843
		c0,0.231-0.038,0.452-0.114,0.659c-0.076,0.209-0.18,0.396-0.312,0.564c-0.133,0.168-0.286,0.314-0.463,0.438
		c-0.176,0.124-0.359,0.218-0.552,0.281l0.036,0.024c0.24,0.048,0.46,0.138,0.66,0.27c0.2,0.133,0.372,0.294,0.516,0.486
		c0.145,0.192,0.256,0.408,0.336,0.648c0.08,0.239,0.12,0.491,0.12,0.756c0,0.392-0.071,0.74-0.216,1.044
		c-0.144,0.304-0.34,0.56-0.588,0.768s-0.536,0.366-0.864,0.475c-0.328,0.107-0.676,0.161-1.044,0.161
		c-0.624,0-1.168-0.136-1.632-0.407c-0.464-0.272-0.812-0.708-1.044-1.309l0.912-0.275c0.144,0.407,0.357,0.71,0.642,0.905
		c0.284,0.196,0.683,0.294,1.194,0.294c0.24,0,0.468-0.039,0.684-0.119s0.406-0.194,0.57-0.343c0.164-0.147,0.292-0.325,0.384-0.533
		s0.139-0.437,0.139-0.685c0-0.319-0.061-0.59-0.181-0.81c-0.12-0.221-0.28-0.398-0.479-0.534c-0.2-0.136-0.431-0.234-0.69-0.294
		c-0.26-0.061-0.53-0.09-0.81-0.09h-0.372V173.427z"/>
	<path d="M44.392,169.635c0.608,0,1.1,0.14,1.476,0.42s0.668,0.636,0.877,1.067c0.207,0.433,0.348,0.906,0.42,1.422
		c0.071,0.517,0.107,1.011,0.107,1.482c0,0.473-0.036,0.966-0.107,1.482c-0.072,0.516-0.213,0.989-0.42,1.422
		c-0.209,0.432-0.501,0.788-0.877,1.067c-0.376,0.28-0.867,0.42-1.476,0.42s-1.1-0.14-1.476-0.42
		c-0.377-0.279-0.668-0.636-0.876-1.067c-0.209-0.433-0.349-0.906-0.42-1.422c-0.072-0.517-0.108-1.01-0.108-1.482
		c0-0.472,0.036-0.966,0.108-1.482c0.071-0.516,0.211-0.989,0.42-1.422c0.208-0.432,0.499-0.787,0.876-1.067
		C43.292,169.774,43.784,169.635,44.392,169.635z M44.392,170.427c-0.464,0-0.83,0.124-1.098,0.372
		c-0.269,0.248-0.471,0.556-0.606,0.924s-0.222,0.76-0.258,1.176s-0.054,0.792-0.054,1.128s0.018,0.712,0.054,1.128
		s0.122,0.809,0.258,1.176c0.136,0.368,0.338,0.677,0.606,0.925c0.268,0.248,0.634,0.371,1.098,0.371s0.83-0.123,1.098-0.371
		c0.269-0.248,0.471-0.557,0.606-0.925c0.136-0.367,0.222-0.76,0.258-1.176s0.054-0.792,0.054-1.128s-0.018-0.712-0.054-1.128
		s-0.122-0.808-0.258-1.176s-0.338-0.676-0.606-0.924C45.222,170.551,44.856,170.427,44.392,170.427z"/>
</g>
<g>
	<path class="st0" d="M72.26,173.427h0.443c0.248,0,0.486-0.028,0.715-0.084c0.228-0.057,0.426-0.146,0.594-0.271
		s0.302-0.286,0.401-0.486c0.101-0.199,0.15-0.439,0.15-0.72c0-0.456-0.138-0.81-0.414-1.062s-0.662-0.378-1.158-0.378
		c-0.359,0-0.676,0.08-0.947,0.239c-0.272,0.16-0.496,0.393-0.673,0.696l-0.756-0.384c0.256-0.456,0.582-0.794,0.979-1.014
		c0.396-0.221,0.854-0.33,1.374-0.33c0.336,0,0.651,0.048,0.947,0.144s0.557,0.238,0.78,0.426c0.224,0.188,0.402,0.42,0.534,0.696
		s0.198,0.59,0.198,0.942c0,0.231-0.038,0.452-0.114,0.659c-0.076,0.209-0.18,0.396-0.312,0.564
		c-0.133,0.168-0.286,0.314-0.463,0.438c-0.176,0.124-0.359,0.218-0.552,0.281l0.036,0.024c0.24,0.048,0.46,0.138,0.66,0.27
		c0.2,0.133,0.372,0.294,0.516,0.486c0.145,0.192,0.256,0.408,0.336,0.648c0.08,0.239,0.12,0.491,0.12,0.756
		c0,0.392-0.071,0.74-0.216,1.044c-0.144,0.304-0.34,0.56-0.588,0.768s-0.536,0.366-0.864,0.475
		c-0.328,0.107-0.676,0.161-1.044,0.161c-0.624,0-1.168-0.136-1.632-0.407c-0.464-0.272-0.812-0.708-1.044-1.309l0.912-0.275
		c0.144,0.407,0.357,0.71,0.642,0.905c0.284,0.196,0.683,0.294,1.194,0.294c0.24,0,0.468-0.039,0.684-0.119s0.406-0.194,0.57-0.343
		c0.164-0.147,0.292-0.325,0.384-0.533s0.139-0.437,0.139-0.685c0-0.319-0.061-0.59-0.181-0.81c-0.12-0.221-0.28-0.398-0.479-0.534
		c-0.2-0.136-0.431-0.234-0.69-0.294c-0.26-0.061-0.53-0.09-0.81-0.09H72.26V173.427z"/>
	<path class="st0" d="M80.66,178.274h-0.864v-7.416l-1.523,1.344l-0.54-0.647l2.16-1.776h0.768V178.274z"/>
</g>
</svg>